<svg width="24" height="24" viewBox="0 0 24 24" fill="none" xmlns="http://www.w3.org/2000/svg">
<rect x="0.5" y="0.5" width="23" height="23" rx="3.5" stroke="url(#paint0_radial_51_287)"/>
<path d="M19.757 5.75866C19.7884 5.75745 19.8198 5.75647 19.8512 5.75608C20.1063 5.75288 20.3401 5.82998 20.5241 6.01273C20.666 6.1539 20.7462 6.34567 20.7465 6.54602C20.7467 6.92942 20.4784 7.20259 20.2266 7.45649L13.1721 14.5032L10.9267 16.7547C10.5066 17.177 10.0919 17.6434 9.63282 18.0219C9.46007 18.1643 9.28972 18.2548 9.06044 18.2543C8.86646 18.2537 8.75167 18.1897 8.59998 18.0747C8.06732 17.6708 7.59204 17.1055 7.11771 16.6308L4.18182 13.6905C3.85814 13.381 3.30181 12.9664 3.24965 12.4985C3.22643 12.2903 3.2935 12.0297 3.42755 11.8671C3.56466 11.7009 3.77208 11.61 3.98425 11.5931C4.15772 11.5793 4.35248 11.6179 4.49947 11.7137C4.95982 12.0139 5.36937 12.5144 5.7596 12.9051L7.83993 14.9883C8.25469 15.4034 8.6624 15.8449 9.1091 16.225C9.59076 15.6579 10.1635 15.1384 10.69 14.6115L13.5629 11.7379L17.2784 8.02291C17.9155 7.38588 18.5366 6.71324 19.2028 6.10792C19.3785 5.94835 19.5259 5.82791 19.757 5.75866Z" fill="#E0F1FF"/>
<defs>
<radialGradient id="paint0_radial_51_287" cx="0" cy="0" r="1" gradientUnits="userSpaceOnUse" gradientTransform="translate(12.0056 5.15331e-06) rotate(90.0128) scale(25.2 81.116)">
<stop offset="0.296117" stop-color="#E0F1FF"/>
<stop offset="1" stop-color="#E0F1FF" stop-opacity="0"/>
</radialGradient>
</defs>
</svg>
