<svg width="20" height="20" viewBox="0 0 20 20" fill="none" xmlns="http://www.w3.org/2000/svg">
<rect x="0.5" y="0.5" width="19" height="19" rx="3.5" stroke="url(#paint0_radial_51_287)"/>
<path d="M16.2056 5.00703C16.2307 5.00606 16.2558 5.00527 16.2809 5.00496C16.4851 5.0024 16.6721 5.06408 16.8193 5.21028C16.9328 5.32321 16.9969 5.47664 16.9972 5.63691C16.9974 5.94364 16.7827 6.16217 16.5813 6.36529L10.9377 12.0027L9.14133 13.8038C8.80528 14.1417 8.47351 14.5148 8.10625 14.8176C7.96805 14.9315 7.83178 15.0039 7.64835 15.0035C7.49317 15.0031 7.40133 14.9518 7.27999 14.8598C6.85385 14.5367 6.47363 14.0845 6.09417 13.7047L3.74545 11.3525C3.48651 11.1049 3.04145 10.7732 2.99972 10.3989C2.98114 10.2323 3.0348 10.0238 3.14204 9.8938C3.25173 9.76079 3.41766 9.68808 3.5874 9.67457C3.72618 9.66354 3.88199 9.6944 3.99958 9.77107C4.36785 10.0112 4.6955 10.4116 5.00768 10.7241L6.67194 12.3908C7.00375 12.7228 7.32992 13.076 7.68728 13.3801C8.07261 12.9264 8.53079 12.5108 8.95202 12.0893L11.2503 9.79045L14.2227 6.81843C14.7324 6.3088 15.2293 5.77069 15.7623 5.28644C15.9028 5.15878 16.0207 5.06243 16.2056 5.00703Z" fill="#00499E"/>
<defs>
<radialGradient id="paint0_radial_51_287" cx="0" cy="0" r="1" gradientUnits="userSpaceOnUse" gradientTransform="translate(10.0047 4.29443e-06) rotate(90.0128) scale(21 67.5966)">
<stop offset="0.296117" stop-color="#0068C7"/>
<stop offset="1" stop-color="#0068C7" stop-opacity="0"/>
</radialGradient>
</defs>
</svg>
